<?xml version="1.0" encoding="utf-8"?>
<!-- Generator: Adobe Illustrator 19.2.0, SVG Export Plug-In . SVG Version: 6.00 Build 0)  -->
<svg version="1.1" id="Layer_1" xmlns="http://www.w3.org/2000/svg" xmlns:xlink="http://www.w3.org/1999/xlink" x="0px" y="0px"
	 viewBox="0 0 1417.3 1277.3" style="enable-background:new 0 0 1417.3 1417.3;" xml:space="preserve">
<style type="text/css">
	.st0{fill:#99A8B2;}
	.st1{fill:#4A88DB;}
	.st2{fill:#6FA9F6;}
	.st3{fill:#2C6CBE;}
	.st4{fill:#94FFFF;}
	.st5{fill:#DEFFFF;}
	.st6{fill:#58D8FF;}
</style>
<path class="st2" d="M1329.5,626.9L722.7,20.1c-3.8-3.8-9-5.3-14-4.7v621.5h625.6C1333.9,633.2,1332.3,629.7,1329.5,626.9z"/>
<path class="st3" d="M87.8,646.7l606.8,606.8c3.8,3.8,9,5.3,14,4.7V636.8H83C83.5,640.4,85,643.9,87.8,646.7z"/>
<path class="st1" d="M87.9,626.9L694.7,20.1c3.8-3.8,9-5.3,14-4.7v621.5H83.2C83.6,633.2,85.1,629.7,87.9,626.9z"/>
<path class="st4" d="M524.9,456.3c6.7-7.7,17.6-7.7,24.2,0l26.2,30.1l0,0L704.6,635c1.1,1.3,2.6,1.8,4.1,1.8v30.5H341.4L524.9,456.3
	z"/>
<path class="st1" d="M1329.5,646.8l-606.8,606.8c-3.8,3.8-9,5.3-14,4.7V636.9h625.6C1333.8,640.5,1332.3,644,1329.5,646.8z"/>
<path class="st5" d="M892.4,456.3c-6.7-7.7-17.6-7.7-24.2,0l-26.2,30.1l0,0L712.7,635c-1.1,1.3-2.7,1.8-4.1,1.8v30.5h367.3
	L892.4,456.3z"/>
<path class="st4" d="M708.7,857.8c0.2,0,0.5,0.1,0.7,0.1c3.3,0,6.5-1.4,9-4.2l80-91.9c0.3-0.4,0.6-0.8,0.8-1.2l77.8-89.4
	c1.9-2.2,5-2.2,7,0l112.2,129c6.7,7.7,17.6,7.7,24.2,0l73.5-84.5c6.7-7.7,6.7-20.2,0-27.8l-44.4-51H708.7V857.8z"/>
<path class="st6" d="M708.7,857.8c-0.2,0-0.5,0.1-0.7,0.1c-3.3,0-6.5-1.4-9-4.2l-80-91.9c-0.3-0.4-0.6-0.8-0.8-1.2l-77.8-89.4
	c-1.9-2.2-5-2.2-7,0l-112.2,129c-6.7,7.7-17.6,7.7-24.2,0l-73.5-84.5c-6.7-7.7-6.7-20.2,0-27.8l44.4-51h340.8V857.8z"/>
</svg>
