<?xml version="1.0" encoding="utf-8"?>
<!-- Generator: Adobe Illustrator 19.2.0, SVG Export Plug-In . SVG Version: 6.00 Build 0)  -->
<svg version="1.1" id="Layer_1" xmlns="http://www.w3.org/2000/svg" xmlns:xlink="http://www.w3.org/1999/xlink" x="0px" y="0px"
	 viewBox="0 0 1417.3 1417.3" style="enable-background:new 0 0 1417.3 1417.3;" xml:space="preserve">
<style type="text/css">
	.st0{fill:#99A8B2;}
	.st1{fill:#4A88DB;}
	.st2{fill:#6FA9F6;}
	.st3{fill:#2C6CBE;}
	.st4{fill:#94FFFF;}
	.st5{fill:#DEFFFF;}
	.st6{fill:#58D8FF;}
</style>
<g>
	<g>
		<path class="st0" d="M262.1,1307.4l0.5,15.2c2.2-5.2,5.4-9.3,9.6-12.2c4.2-2.9,9.3-4.4,15.3-4.4c6.4,0,11.6,1.6,15.5,4.9
			c4,3.3,6.7,8.3,8.2,15.1c2-6.3,5.2-11.2,9.6-14.7c4.4-3.5,10-5.3,16.6-5.3c8.2,0,14.3,2.7,18.6,8c4.2,5.3,6.4,13.7,6.4,25.1v42.1
			h-3.8V1339c0-10.7-1.9-18.3-5.7-22.7c-3.8-4.4-8.9-6.6-15.3-6.6c-7.8,0-13.8,2.4-17.8,7.1c-4,4.7-6.5,10.8-7.5,18.3
			c0,0.9,0,1.7,0.1,2.4c0,0.7,0.1,1.3,0.1,1.9v42h-3.8V1339c0-10.7-1.9-18.3-5.7-22.7c-3.8-4.4-8.9-6.6-15.4-6.6
			c-7.7,0-13.5,2.2-17.4,6.7c-4,4.5-6.5,10.3-7.6,17.5v47.4h-3.8v-73.9H262.1z"/>
		<path class="st0" d="M453.8,1367.7c-2.6,4.5-6.4,8.1-11.4,10.9c-5.1,2.8-11.2,4.2-18.4,4.2c-6.9,0-12.3-1.9-16.2-5.6
			c-3.9-3.8-5.9-8.8-5.9-15.2c0-6.2,2.9-11.4,8.8-15.6c5.9-4.2,13.2-6.3,22-6.3h21.1v-10.8c0-6.1-2-10.9-5.9-14.4
			c-3.9-3.4-9.5-5.2-16.6-5.2c-6.7,0-12.1,1.6-16.2,4.9c-4.1,3.2-6.1,7.4-6.1,12.5l-3.1-0.1l-0.1-0.3c-0.3-5.7,2-10.6,6.7-14.6
			c4.7-4,11-6,18.8-6c7.9,0,14.3,2,19.1,6c4.8,4,7.2,9.8,7.2,17.4v37c0,2.6,0.1,5.1,0.4,7.6c0.3,2.5,0.8,4.9,1.5,7.3h-4.1
			c-0.6-3.2-1-5.7-1.2-7.3c-0.2-1.6-0.3-3.4-0.3-5.2V1367.7z M424,1379.1c7.3,0,13.5-1.6,18.6-4.9c5.1-3.2,8.8-7.9,11.2-13.9v-16.6
			h-20.9c-7.7,0-14.1,1.8-19.4,5.3c-5.3,3.5-7.9,7.9-7.9,13.1c0,5,1.7,9,5,12.2C414,1377.5,418.5,1379.1,424,1379.1z"/>
		<path class="st0" d="M500.2,1344.3c0-11.7,2.5-21,7.4-27.9c4.9-6.9,11.7-10.3,20.5-10.3c5.8,0,10.8,1.3,15,3.9
			c4.2,2.6,7.6,6.2,10.1,10.7l0.3-13.3h3.3v102.3h-3.7v-39.9c-2.5,4-5.9,7.1-10.2,9.4c-4.3,2.3-9.3,3.5-15,3.5
			c-8.7,0-15.5-3.3-20.4-10c-4.9-6.6-7.3-15.7-7.3-27V1344.3z M504.1,1345.7c0,10.2,2,18.3,6,24.3c4,6,10,9,17.8,9
			c6.4,0,11.8-1.5,16-4.4c4.3-2.9,7.3-6.8,9.3-11.7v-34.6c-1.8-5.3-4.6-9.7-8.6-13.3c-4-3.6-9.5-5.4-16.5-5.4
			c-7.8,0-13.8,3.2-17.9,9.6c-4.1,6.4-6.1,14.7-6.1,25V1345.7z"/>
		<path class="st0" d="M652.3,1368.1c-2.3,4.7-5.6,8.3-9.9,10.9c-4.3,2.5-9.5,3.8-15.7,3.8c-7.6,0-13.6-2.7-17.9-8.1
			c-4.3-5.4-6.5-13.8-6.5-25.1v-42.1h3.7v42.3c0,10,1.8,17.4,5.5,22.2c3.7,4.8,8.7,7.2,15,7.2c7.7,0,13.6-1.9,17.7-5.7
			c4.1-3.8,6.8-8.8,7.9-15v-51h3.8v73.9h-3.1L652.3,1368.1z"/>
		<path class="st0" d="M726.8,1382.8c-8.4,0-15.7-3.4-21.8-10.2c-6.1-6.8-9.2-15.3-9.2-25.4v-4.4c0-10.6,3-19.4,8.9-26.3
			c5.9-6.9,13.2-10.4,21.9-10.4c8.3,0,15.1,2.7,20.4,8.2s7.9,12.8,7.9,22v5.7h-55.4v0.9v4.4c0,8.9,2.6,16.5,7.9,22.6
			c5.2,6.2,11.7,9.3,19.5,9.3c5.5,0,10.1-0.8,13.8-2.3s6.9-3.8,9.5-6.8l2,2.9c-2.9,3.2-6.5,5.7-10.6,7.3S732.4,1382.8,726.8,1382.8z
			 M726.6,1309.7c-7.3,0-13.4,2.7-18.3,8c-4.9,5.4-7.6,12-8.3,20l0.2,0.4h51v-2.3c0-7.5-2.3-13.8-6.8-18.8
			C739.8,1312.2,733.9,1309.7,726.6,1309.7z"/>
		<path class="st0" d="M802.1,1287.5v19.9h18.2v3.8h-18.2v51.1c0,6.1,1,10.4,3.1,12.9c2,2.6,4.8,3.9,8.1,3.9c1.2,0,2.3,0,3.3-0.1
			c1-0.1,2.3-0.3,4-0.5l0.7,3.3c-1.1,0.4-2.3,0.6-3.6,0.8s-2.6,0.2-4.2,0.2c-5,0-8.7-1.6-11.3-4.8c-2.6-3.2-3.9-8.4-3.9-15.6v-51.1
			h-13.7v-3.8h13.7v-19.9H802.1z"/>
		<path class="st0" d="M867.7,1287.5v19.9h18.2v3.8h-18.2v51.1c0,6.1,1,10.4,3.1,12.9c2,2.6,4.8,3.9,8.1,3.9c1.2,0,2.3,0,3.3-0.1
			c1-0.1,2.3-0.3,4-0.5l0.7,3.3c-1.1,0.4-2.3,0.6-3.6,0.8s-2.6,0.2-4.2,0.2c-5,0-8.7-1.6-11.3-4.8c-2.6-3.2-3.9-8.4-3.9-15.6v-51.1
			h-13.7v-3.8H864v-19.9H867.7z"/>
		<path class="st0" d="M950.9,1382.8c-8.4,0-15.7-3.4-21.8-10.2c-6.1-6.8-9.2-15.3-9.2-25.4v-4.4c0-10.6,3-19.4,8.9-26.3
			c5.9-6.9,13.2-10.4,21.9-10.4c8.3,0,15.1,2.7,20.4,8.2s7.9,12.8,7.9,22v5.7h-55.4v0.9v4.4c0,8.9,2.6,16.5,7.9,22.6
			c5.2,6.2,11.7,9.3,19.5,9.3c5.5,0,10.1-0.8,13.8-2.3c3.7-1.5,6.9-3.8,9.5-6.8l2,2.9c-2.9,3.2-6.5,5.7-10.6,7.3
			C961.5,1381.9,956.5,1382.8,950.9,1382.8z M950.7,1309.7c-7.3,0-13.4,2.7-18.3,8c-4.9,5.4-7.6,12-8.3,20l0.2,0.4h51v-2.3
			c0-7.5-2.3-13.8-6.8-18.8S958,1309.7,950.7,1309.7z"/>
		<path class="st1" d="M1034,1307.4v78.2c0,8.2-2.1,14.4-6.4,18.9c-4.2,4.4-10.1,6.7-17.7,6.7c-1.6,0-3.1-0.1-4.4-0.3
			c-1.3-0.2-2.7-0.5-4.2-0.9l1-13.3c0.8,0.2,1.7,0.4,2.9,0.6c1.1,0.2,2.2,0.2,3.1,0.2c2.8,0,5-1,6.7-2.9c1.6-1.9,2.4-5,2.4-9.1
			v-78.2H1034z M1033.6,1289.3H1017v-14.6h16.6V1289.3z"/>
		<path class="st1" d="M1116.2,1361.2c0-2.5-1.1-4.7-3.3-6.4s-6.3-3.2-12.2-4.4c-8.8-1.9-15.5-4.5-20-8c-4.5-3.4-6.8-8.1-6.8-14
			c0-6.2,2.6-11.5,7.9-15.8c5.2-4.4,12.1-6.6,20.7-6.6c9,0,16.2,2.2,21.5,6.7c5.3,4.4,7.8,9.9,7.6,16.5l-0.1,0.4h-15.9
			c0-3.1-1.2-5.7-3.5-7.9c-2.3-2.2-5.5-3.3-9.6-3.3c-4,0-7.1,0.9-9.2,2.7c-2.1,1.8-3.1,4-3.1,6.6s1,4.7,3,6.2c2,1.5,6,2.9,12.1,4.1
			c9.3,1.9,16.2,4.6,20.7,8.1c4.5,3.5,6.7,8.2,6.7,14.2c0,6.6-2.7,12-8.2,16.2c-5.5,4.1-12.7,6.2-21.7,6.2c-9.6,0-17.2-2.5-22.7-7.4
			c-5.6-4.9-8.2-10.6-7.9-16.9l0.1-0.4h15.4c0.2,4.3,1.7,7.4,4.6,9.4c2.9,2,6.5,2.9,10.7,2.9c4.3,0,7.6-0.8,9.9-2.5
			S1116.2,1364,1116.2,1361.2z"/>
	</g>
</g>
<path class="st2" d="M1329.5,626.9L722.7,20.1c-3.8-3.8-9-5.3-14-4.7v621.5h625.6C1333.9,633.2,1332.3,629.7,1329.5,626.9z"/>
<path class="st3" d="M87.8,646.7l606.8,606.8c3.8,3.8,9,5.3,14,4.7V636.8H83C83.5,640.4,85,643.9,87.8,646.7z"/>
<path class="st1" d="M87.9,626.9L694.7,20.1c3.8-3.8,9-5.3,14-4.7v621.5H83.2C83.6,633.2,85.1,629.7,87.9,626.9z"/>
<path class="st4" d="M524.9,456.3c6.7-7.7,17.6-7.7,24.2,0l26.2,30.1l0,0L704.6,635c1.1,1.3,2.6,1.8,4.1,1.8v30.5H341.4L524.9,456.3
	z"/>
<path class="st1" d="M1329.5,646.8l-606.8,606.8c-3.8,3.8-9,5.3-14,4.7V636.9h625.6C1333.8,640.5,1332.3,644,1329.5,646.8z"/>
<path class="st5" d="M892.4,456.3c-6.7-7.7-17.6-7.7-24.2,0l-26.2,30.1l0,0L712.7,635c-1.1,1.3-2.7,1.8-4.1,1.8v30.5h367.3
	L892.4,456.3z"/>
<path class="st4" d="M708.7,857.8c0.2,0,0.5,0.1,0.7,0.1c3.3,0,6.5-1.4,9-4.2l80-91.9c0.3-0.4,0.6-0.8,0.8-1.2l77.8-89.4
	c1.9-2.2,5-2.2,7,0l112.2,129c6.7,7.7,17.6,7.7,24.2,0l73.5-84.5c6.7-7.7,6.7-20.2,0-27.8l-44.4-51H708.7V857.8z"/>
<path class="st6" d="M708.7,857.8c-0.2,0-0.5,0.1-0.7,0.1c-3.3,0-6.5-1.4-9-4.2l-80-91.9c-0.3-0.4-0.6-0.8-0.8-1.2l-77.8-89.4
	c-1.9-2.2-5-2.2-7,0l-112.2,129c-6.7,7.7-17.6,7.7-24.2,0l-73.5-84.5c-6.7-7.7-6.7-20.2,0-27.8l44.4-51h340.8V857.8z"/>
</svg>
