<?xml version="1.0" encoding="utf-8"?>
<!-- Generator: Adobe Illustrator 19.2.0, SVG Export Plug-In . SVG Version: 6.00 Build 0)  -->
<svg version="1.1" id="Layer_1" xmlns="http://www.w3.org/2000/svg" xmlns:xlink="http://www.w3.org/1999/xlink" x="0px" y="0px"
	 viewBox="0 0 1417.3 1417.3" style="enable-background:new 0 0 1417.3 1417.3;" xml:space="preserve">
<style type="text/css">
	.st0{fill:#6FA9F6;}
	.st1{fill:#2C6CBE;}
	.st2{fill:#4A88DB;}
	.st3{fill:#94FFFF;}
	.st4{fill:#DEFFFF;}
	.st5{fill:#58D8FF;}
	.st6{fill:#FFFFFF;}
</style>
<path class="st0" d="M1329.5,626.9L722.7,20.1c-3.8-3.8-9-5.3-14-4.7v621.5h625.6C1333.9,633.2,1332.3,629.7,1329.5,626.9z"/>
<path class="st1" d="M87.8,646.7l606.8,606.8c3.8,3.8,9,5.3,14,4.7V636.8H83C83.5,640.4,85,643.9,87.8,646.7z"/>
<path class="st2" d="M87.9,626.9L694.7,20.1c3.8-3.8,9-5.3,14-4.7v621.5H83.2C83.6,633.2,85.1,629.7,87.9,626.9z"/>
<path class="st3" d="M524.9,456.3c6.7-7.7,17.6-7.7,24.2,0l26.2,30.1l0,0L704.6,635c1.1,1.3,2.6,1.8,4.1,1.8v30.5H341.4L524.9,456.3
	z"/>
<path class="st2" d="M1329.5,646.8l-606.8,606.8c-3.8,3.8-9,5.3-14,4.7V636.9h625.6C1333.8,640.5,1332.3,644,1329.5,646.8z"/>
<path class="st4" d="M892.4,456.3c-6.7-7.7-17.6-7.7-24.2,0l-26.2,30.1l0,0L712.7,635c-1.1,1.3-2.7,1.8-4.1,1.8v30.5h367.3
	L892.4,456.3z"/>
<path class="st3" d="M708.7,857.8c0.2,0,0.5,0.1,0.7,0.1c3.3,0,6.5-1.4,9-4.2l80-91.9c0.3-0.4,0.6-0.8,0.8-1.2l77.8-89.4
	c1.9-2.2,5-2.2,7,0l112.2,129c6.7,7.7,17.6,7.7,24.2,0l73.5-84.5c6.7-7.7,6.7-20.2,0-27.8l-44.4-51H708.7V857.8z"/>
<path class="st5" d="M708.7,857.8c-0.2,0-0.5,0.1-0.7,0.1c-3.3,0-6.5-1.4-9-4.2l-80-91.9c-0.3-0.4-0.6-0.8-0.8-1.2l-77.8-89.4
	c-1.9-2.2-5-2.2-7,0l-112.2,129c-6.7,7.7-17.6,7.7-24.2,0l-73.5-84.5c-6.7-7.7-6.7-20.2,0-27.8l44.4-51h340.8V857.8z"/>
<path class="st6" d="M424.5,882.6l0.3,9.5c1.4-3.3,3.4-5.8,6-7.6c2.6-1.8,5.8-2.7,9.6-2.7c4,0,7.2,1,9.7,3.1c2.5,2,4.2,5.2,5.1,9.4
	c1.2-3.9,3.2-7,6-9.2c2.8-2.2,6.2-3.3,10.4-3.3c5.1,0,9,1.7,11.6,5c2.6,3.3,4,8.6,4,15.7v26.4h-2.3v-26.4c0-6.7-1.2-11.4-3.6-14.2
	c-2.4-2.8-5.6-4.1-9.6-4.1c-4.9,0-8.6,1.5-11.1,4.4c-2.5,2.9-4.1,6.8-4.7,11.4c0,0.6,0,1.1,0,1.5c0,0.4,0,0.8,0,1.2v26.3h-2.3v-26.4
	c0-6.7-1.2-11.5-3.6-14.2c-2.4-2.7-5.6-4.1-9.6-4.1c-4.8,0-8.4,1.4-10.9,4.2c-2.5,2.8-4.1,6.4-4.7,10.9v29.7h-2.3v-46.2H424.5z"/>
<path class="st6" d="M544.4,920.3c-1.6,2.8-4,5.1-7.1,6.8c-3.2,1.8-7,2.6-11.5,2.6c-4.3,0-7.7-1.2-10.1-3.5
	c-2.4-2.3-3.7-5.5-3.7-9.5c0-3.9,1.8-7.1,5.5-9.7c3.7-2.6,8.2-3.9,13.7-3.9h13.2v-6.8c0-3.8-1.2-6.8-3.7-9
	c-2.5-2.2-5.9-3.2-10.4-3.2c-4.2,0-7.6,1-10.1,3c-2.5,2-3.8,4.6-3.8,7.8l-1.9-0.1l-0.1-0.2c-0.2-3.6,1.2-6.6,4.2-9.1
	c3-2.5,6.9-3.7,11.7-3.7c5,0,8.9,1.3,11.9,3.8c3,2.5,4.5,6.1,4.5,10.9v23.2c0,1.6,0.1,3.2,0.3,4.7c0.2,1.5,0.5,3.1,0.9,4.6h-2.6
	c-0.4-2-0.6-3.5-0.7-4.6c-0.1-1-0.2-2.1-0.2-3.3V920.3z M525.8,927.5c4.6,0,8.5-1,11.6-3c3.2-2,5.5-4.9,7-8.7v-10.4h-13.1
	c-4.8,0-8.8,1.1-12.1,3.3c-3.3,2.2-4.9,4.9-4.9,8.2c0,3.1,1,5.6,3.1,7.6C519.5,926.5,522.3,927.5,525.8,927.5z"/>
<path class="st6" d="M573.4,905.7c0-7.3,1.5-13.1,4.6-17.5c3.1-4.3,7.3-6.5,12.8-6.5c3.6,0,6.7,0.8,9.4,2.4c2.6,1.6,4.7,3.9,6.3,6.7
	l0.2-8.3h2.1v64h-2.3v-25c-1.6,2.5-3.7,4.4-6.4,5.9c-2.7,1.5-5.8,2.2-9.4,2.2c-5.4,0-9.7-2.1-12.8-6.2c-3.1-4.2-4.6-9.8-4.6-16.9
	V905.7z M575.8,906.6c0,6.4,1.3,11.4,3.8,15.2c2.5,3.8,6.2,5.6,11.1,5.6c4,0,7.4-0.9,10-2.7c2.7-1.8,4.6-4.3,5.8-7.3v-21.7
	c-1.1-3.3-2.9-6.1-5.4-8.3c-2.5-2.2-5.9-3.4-10.3-3.4c-4.9,0-8.6,2-11.2,6c-2.5,4-3.8,9.2-3.8,15.6V906.6z"/>
<path class="st6" d="M668.5,920.6c-1.5,2.9-3.5,5.2-6.2,6.8c-2.7,1.6-6,2.4-9.8,2.4c-4.8,0-8.5-1.7-11.2-5.1c-2.7-3.4-4-8.6-4-15.7
	v-26.4h2.3v26.4c0,6.3,1.2,10.9,3.5,13.9c2.3,3,5.4,4.5,9.4,4.5c4.8,0,8.5-1.2,11.1-3.5c2.6-2.4,4.2-5.5,4.9-9.4v-31.9h2.3v46.2
	h-1.9L668.5,920.6z"/>
<path class="st6" d="M715.1,929.8c-5.3,0-9.8-2.1-13.7-6.4c-3.8-4.3-5.7-9.5-5.7-15.9v-2.7c0-6.6,1.9-12.1,5.6-16.5
	c3.7-4.3,8.3-6.5,13.7-6.5c5.2,0,9.5,1.7,12.8,5.1c3.3,3.4,4.9,8,4.9,13.8v3.5H698v0.6v2.7c0,5.6,1.6,10.3,4.9,14.2
	c3.3,3.9,7.3,5.8,12.2,5.8c3.4,0,6.3-0.5,8.7-1.4s4.3-2.3,6-4.2l1.2,1.8c-1.8,2-4,3.6-6.6,4.6S718.7,929.8,715.1,929.8z M715,884.1
	c-4.6,0-8.4,1.7-11.5,5c-3,3.3-4.8,7.5-5.2,12.5l0.1,0.3h31.9v-1.4c0-4.7-1.4-8.6-4.3-11.7C723.3,885.7,719.6,884.1,715,884.1z"/>
<path class="st6" d="M762.2,870.2v12.5h11.4v2.3h-11.4v32c0,3.8,0.6,6.5,1.9,8.1c1.3,1.6,3,2.4,5.1,2.4c0.8,0,1.5,0,2.1-0.1
	c0.6-0.1,1.4-0.2,2.5-0.3l0.4,2.1c-0.7,0.2-1.5,0.4-2.2,0.5s-1.6,0.1-2.6,0.1c-3.1,0-5.5-1-7.1-3c-1.6-2-2.4-5.3-2.4-9.8v-32h-8.5
	v-2.3h8.5v-12.5H762.2z"/>
<path class="st6" d="M803.3,870.2v12.5h11.4v2.3h-11.4v32c0,3.8,0.6,6.5,1.9,8.1c1.3,1.6,3,2.4,5.1,2.4c0.8,0,1.5,0,2.1-0.1
	c0.6-0.1,1.4-0.2,2.5-0.3l0.4,2.1c-0.7,0.2-1.5,0.4-2.2,0.5s-1.6,0.1-2.6,0.1c-3.1,0-5.5-1-7.1-3c-1.6-2-2.4-5.3-2.4-9.8v-32h-8.5
	v-2.3h8.5v-12.5H803.3z"/>
<path class="st6" d="M855.3,929.8c-5.3,0-9.8-2.1-13.6-6.4c-3.8-4.3-5.7-9.5-5.7-15.9v-2.7c0-6.6,1.9-12.1,5.6-16.5
	c3.7-4.3,8.3-6.5,13.7-6.5c5.2,0,9.5,1.7,12.8,5.1c3.3,3.4,4.9,8,4.9,13.8v3.5h-34.6v0.6v2.7c0,5.6,1.6,10.3,4.9,14.2
	c3.3,3.9,7.3,5.8,12.2,5.8c3.4,0,6.3-0.5,8.7-1.4c2.3-0.9,4.3-2.3,6-4.2l1.2,1.8c-1.8,2-4,3.6-6.6,4.6
	C861.9,929.2,858.8,929.8,855.3,929.8z M855.2,884.1c-4.6,0-8.4,1.7-11.5,5c-3,3.3-4.8,7.5-5.2,12.5l0.1,0.3h31.9v-1.4
	c0-4.7-1.4-8.6-4.3-11.7S859.7,884.1,855.2,884.1z"/>
<path class="st3" d="M907.3,882.6v48.9c0,5.1-1.3,9-4,11.8c-2.6,2.8-6.3,4.2-11.1,4.2c-1,0-2-0.1-2.8-0.2c-0.8-0.1-1.7-0.3-2.6-0.6
	l0.6-8.3c0.5,0.1,1.1,0.3,1.8,0.4c0.7,0.1,1.4,0.1,2,0.1c1.8,0,3.2-0.6,4.2-1.8c1-1.2,1.5-3.1,1.5-5.7v-48.9H907.3z M907,871.3
	h-10.4v-9.1H907V871.3z"/>
<path class="st3" d="M958.7,916.3c0-1.6-0.7-2.9-2.1-4s-3.9-2-7.6-2.8c-5.5-1.2-9.7-2.8-12.5-5c-2.8-2.1-4.3-5.1-4.3-8.8
	c0-3.9,1.6-7.2,4.9-9.9c3.3-2.7,7.6-4.1,12.9-4.1c5.6,0,10.1,1.4,13.4,4.2c3.3,2.8,4.9,6.2,4.8,10.3l-0.1,0.3h-10
	c0-1.9-0.7-3.5-2.2-4.9c-1.5-1.4-3.4-2.1-6-2.1c-2.5,0-4.4,0.6-5.7,1.7c-1.3,1.1-2,2.5-2,4.1s0.6,2.9,1.9,3.9c1.2,1,3.8,1.8,7.5,2.5
	c5.8,1.2,10.1,2.9,12.9,5.1c2.8,2.2,4.2,5.1,4.2,8.9c0,4.2-1.7,7.5-5.1,10.1c-3.4,2.6-8,3.9-13.6,3.9c-6,0-10.8-1.5-14.2-4.6
	c-3.5-3.1-5.1-6.6-5-10.6l0.1-0.3h9.7c0.1,2.7,1.1,4.6,2.9,5.9c1.8,1.2,4,1.8,6.7,1.8c2.7,0,4.7-0.5,6.2-1.5
	C957.9,919.4,958.7,918,958.7,916.3z"/>
</svg>
